<?xml version="1.0" standalone="no"?>
<!DOCTYPE svg PUBLIC "-//W3C//DTD SVG 20010904//EN"
 "http://www.w3.org/TR/2001/REC-SVG-20010904/DTD/svg10.dtd">
<svg version="1.0" xmlns="http://www.w3.org/2000/svg"
 width="460.000000pt" height="460.000000pt" viewBox="0 0 460.000000 460.000000"
 preserveAspectRatio="xMidYMid meet">
<metadata>
Created by potrace 1.14, written by Peter Selinger 2001-2017
</metadata>
<g transform="translate(0.000000,460.000000) scale(0.100000,-0.100000)"
fill="#000000" stroke="none">
<path d="M293 4523 l-293 -3 0 -2258 0 -2257 650 -1 650 -2 0 34 c0 18 -11 67
-25 109 -41 126 -58 382 -34 524 6 36 26 97 45 134 34 68 34 68 33 205 -1 75
-1 141 0 146 2 14 71 -56 71 -71 0 -7 4 -13 10 -13 5 0 17 -17 25 -37 20 -47
140 -164 161 -156 10 4 12 1 7 -13 -4 -11 -3 -15 5 -10 6 3 20 -4 31 -16 12
-12 21 -18 21 -13 0 4 9 0 20 -10 11 -10 17 -22 14 -26 -3 -5 2 -9 10 -9 25 0
66 -22 66 -37 0 -13 16 -17 58 -13 14 1 35 -11 54 -29 21 -21 38 -29 50 -25
12 3 18 0 18 -10 0 -20 40 -32 51 -15 6 11 9 10 15 -4 5 -13 10 -15 19 -7 8 7
15 7 19 1 3 -5 16 -7 28 -3 15 4 19 2 13 -7 -5 -10 -2 -12 11 -7 22 6 172 24
259 30 63 5 75 8 143 38 23 10 46 16 51 14 5 -3 14 1 21 10 7 8 19 13 27 10 8
-3 11 -2 8 3 -3 5 0 13 6 17 6 3 15 0 20 -7 7 -11 9 -11 9 -1 0 15 24 42 37
42 5 0 31 20 56 45 26 25 52 45 57 45 6 0 10 5 10 11 0 5 4 8 10 4 8 -5 38 14
61 40 27 30 62 74 82 103 12 17 28 30 35 27 6 -2 12 3 12 11 0 9 6 14 13 11 6
-2 11 -9 10 -13 -3 -17 -16 -188 -16 -220 0 -18 10 -45 25 -65 34 -45 40 -87
39 -247 0 -136 -11 -243 -36 -367 -8 -38 -17 -91 -20 -117 l-6 -48 795 0 796
0 0 2258 0 2259 -272 6 c-252 7 -3376 6 -4035 0z m1777 -996 c14 -4 50 -9 81
-12 61 -5 139 -31 139 -47 0 -5 4 -7 9 -3 6 3 15 -4 22 -16 8 -16 13 -18 19
-9 11 18 45 4 60 -25 9 -18 19 -23 32 -19 12 3 18 0 18 -10 0 -9 4 -16 10 -16
5 0 7 -7 4 -15 -4 -8 -1 -21 5 -29 6 -7 9 -15 7 -17 -6 -6 23 -8 135 -13 53
-2 105 -7 117 -10 12 -4 30 -2 41 3 14 8 22 7 31 -4 6 -8 9 -19 5 -24 -4 -7 1
-8 12 -4 16 6 16 5 5 -9 -12 -14 -7 -20 35 -43 26 -15 55 -31 63 -36 8 -5 37
-20 63 -34 26 -14 57 -37 69 -50 26 -31 74 -45 126 -38 31 4 44 0 70 -22 18
-15 32 -31 32 -37 0 -5 6 -24 13 -41 43 -100 46 -129 50 -417 2 -124 7 -232
12 -239 14 -24 -54 21 -101 66 -53 51 -56 81 -14 138 68 93 66 137 -11 251
-158 231 -365 388 -609 463 -307 94 -621 71 -894 -65 -38 -19 -75 -33 -83 -30
-8 3 -12 2 -9 -3 3 -5 -22 -28 -57 -52 -125 -87 -276 -256 -351 -394 -15 -27
-36 -61 -47 -75 l-20 -25 5 35 c3 19 8 55 11 80 14 116 44 219 74 255 9 11 27
41 40 67 12 26 26 50 32 53 5 4 9 18 9 32 0 16 7 27 19 30 11 3 17 11 15 18
-6 16 21 72 37 77 7 2 14 15 16 29 6 42 37 74 69 71 20 -2 25 0 15 7 -24 15
-2 29 38 25 22 -3 42 -1 45 4 9 15 110 3 123 -14 36 -48 141 -74 213 -53 25 7
50 14 55 14 40 6 86 19 91 27 3 5 12 4 21 -3 12 -10 16 -10 24 2 6 9 3 18 -9
27 -9 7 -17 18 -17 24 0 16 -54 30 -91 23 -17 -3 -34 -2 -38 2 -4 4 -13 8 -19
9 -7 0 -20 2 -29 2 -9 1 -33 18 -53 39 -54 56 -45 68 25 34 30 -15 40 -16 40
-6 0 7 6 16 13 18 9 4 8 8 -3 16 -12 9 -10 11 12 11 15 0 29 3 31 8 6 8 62 8
97 -1z m318 -392 c78 -6 246 -56 334 -101 147 -74 312 -217 389 -337 52 -80
52 -122 4 -194 -50 -75 -47 -92 29 -155 36 -29 76 -61 91 -72 49 -34 65 -73
66 -161 0 -44 3 -88 7 -97 4 -10 35 -51 70 -92 90 -107 85 -130 -56 -222 -102
-67 -130 -93 -187 -179 -127 -189 -278 -316 -471 -396 -223 -93 -431 -110
-664 -53 -268 65 -488 227 -646 474 -45 70 -42 105 16 187 27 39 41 68 38 83
-2 15 -36 52 -92 99 -97 84 -116 115 -116 195 0 58 -9 75 -82 153 -82 89 -73
116 82 226 101 71 117 87 176 178 59 88 168 206 249 266 76 57 260 153 292
153 5 0 39 9 74 20 66 21 226 39 289 34 19 -2 68 -6 108 -9z m-1498 -470 c0
-8 7 -15 15 -15 8 0 15 -6 15 -14 0 -8 9 -18 20 -21 11 -4 18 -11 15 -16 -4
-5 1 -9 9 -9 25 0 63 -43 74 -82 10 -36 10 -37 -44 -80 -30 -24 -57 -51 -60
-61 -6 -20 39 -97 56 -97 6 0 8 -12 6 -27 -6 -32 0 -44 20 -36 13 5 13 8 -2
24 -9 11 -12 19 -6 19 14 0 45 -44 34 -48 -5 -1 -8 -23 -6 -47 3 -39 1 -45
-16 -45 -10 0 -22 -4 -25 -10 -11 -18 6 -77 31 -103 29 -32 31 -67 4 -90 -11
-9 -17 -23 -14 -31 3 -8 -2 -16 -13 -19 -10 -3 -5 -5 13 -6 81 -3 80 -111 -1
-111 -55 0 -81 30 -88 100 -3 33 -13 72 -22 86 -17 26 -46 123 -69 234 -8 36
-26 99 -41 140 -21 57 -28 98 -31 170 -2 80 -1 92 10 78 7 -10 18 -18 25 -18
6 0 11 -4 11 -10 0 -18 18 -11 25 10 3 11 15 20 26 20 13 0 19 7 19 24 0 32
-24 49 -60 44 -34 -5 -40 10 -12 34 33 29 82 37 82 13z m2681 -54 c21 -17 22
-22 11 -41 -11 -18 -11 -24 0 -37 38 -46 37 -241 -1 -320 -12 -23 -28 -73 -36
-110 -9 -37 -23 -86 -31 -108 -9 -22 -15 -41 -15 -42 7 -19 -3 -22 -20 -7 -32
29 -45 72 -51 165 -5 82 -18 125 -42 141 -8 6 -8 8 0 8 6 0 14 19 17 43 8 58
27 177 32 204 3 12 18 35 35 51 16 17 30 35 30 41 0 9 28 30 41 31 4 0 17 -9
30 -19z m-2347 -715 c53 -49 58 -58 53 -85 -4 -17 -25 -54 -47 -82 -22 -28
-42 -61 -45 -72 -2 -12 -6 -31 -8 -42 -3 -12 -5 -6 -6 13 0 18 4 42 9 53 8 14
7 25 -5 41 -19 28 -19 33 0 51 13 14 13 19 0 51 -17 41 -19 49 -6 42 11 -7 9
14 -4 34 -12 20 -17 50 -7 50 4 0 33 -24 66 -54z m2226 -206 c0 -11 -60 -44
-67 -36 -3 3 10 14 28 25 39 24 39 24 39 11z m-2220 -187 c0 -7 5 -13 10 -13
6 0 10 -5 10 -10 0 -34 195 -252 283 -317 26 -19 45 -38 42 -43 -3 -5 -18 4
-33 18 -15 15 -47 43 -71 61 -24 19 -51 42 -59 50 -9 9 -20 16 -26 16 -6 1
-10 6 -9 13 2 7 -2 12 -7 12 -5 0 -9 3 -7 8 4 13 -41 52 -46 39 -6 -16 -36 22
-37 46 0 9 -4 17 -10 17 -5 0 -12 11 -16 25 -3 14 -10 25 -15 25 -5 0 -9 8 -9
18 0 9 -7 26 -15 36 -8 11 -15 27 -15 35 1 13 4 12 15 -3 8 -11 15 -26 15 -33z
m1891 -220 c-45 -62 -113 -123 -136 -123 -6 0 146 149 153 150 2 0 -6 -12 -17
-27z m-181 -157 c0 -2 -7 -7 -16 -10 -8 -3 -12 -2 -9 4 6 10 25 14 25 6z
m-1183 -97 c178 -84 339 -114 558 -105 113 5 160 12 240 35 93 27 253 88 265
101 10 11 52 31 56 27 3 -2 -21 -20 -53 -39 -32 -19 -57 -40 -56 -45 1 -6 -11
-16 -26 -23 -16 -6 -32 -20 -37 -29 -17 -35 -103 -100 -142 -107 -20 -3 -54
-17 -75 -30 -27 -18 -49 -24 -80 -22 -23 1 -53 -2 -66 -6 -18 -6 -22 -5 -16 5
5 8 -1 6 -12 -4 -12 -11 -24 -14 -27 -9 -3 6 0 13 6 16 7 3 2 4 -12 3 -18 -1
-25 3 -24 16 2 25 -37 22 -43 -4 -6 -20 -10 -20 -102 -15 -114 7 -131 9 -139
22 -10 15 -44 27 -65 25 -10 -2 -27 5 -36 14 -10 8 -28 17 -40 20 -30 6 -41
14 -41 31 0 8 -6 14 -14 14 -8 0 -20 14 -28 30 -7 17 -23 33 -35 36 -24 7 -32
24 -10 24 8 0 7 3 -3 9 -8 6 -18 7 -24 4 -5 -4 -7 1 -3 10 4 11 2 14 -9 10 -8
-3 -14 1 -14 10 0 17 -39 49 -50 42 -4 -2 -7 2 -7 10 0 9 11 6 38 -11 21 -13
78 -43 126 -65z m-1620 -481 c-3 -8 -6 -5 -6 6 -1 11 2 17 5 13 3 -3 4 -12 1
-19z m133 -508 c0 -5 -2 -10 -4 -10 -3 0 -8 5 -11 10 -3 6 -1 10 4 10 6 0 11
-4 11 -10z"/>
<path d="M1528 3093 c7 -3 16 -2 19 1 4 3 -2 6 -13 5 -11 0 -14 -3 -6 -6z"/>
<path d="M1533 3071 c1 -5 -9 -18 -23 -29 -14 -12 -20 -21 -15 -21 6 0 24 12
42 27 28 24 29 28 13 29 -11 1 -19 -2 -17 -6z"/>
<path d="M1435 3009 c-16 -8 -14 -8 10 -4 28 4 28 4 8 -7 -23 -11 -31 -28 -15
-28 10 0 42 33 42 43 0 9 -21 8 -45 -4z"/>
<path d="M1384 2986 c-10 -8 -17 -16 -14 -19 3 -2 14 4 24 14 23 22 18 25 -10
5z"/>
<path d="M1395 2960 c-3 -5 -4 -14 -1 -19 4 -5 0 -12 -6 -14 -8 -4 -7 -6 3 -6
9 -1 20 6 23 15 4 10 2 13 -6 8 -8 -5 -9 -2 -5 9 7 19 2 23 -8 7z"/>
<path d="M1910 2742 c-26 -13 -44 -36 -77 -98 -24 -45 -62 -99 -85 -120 -104
-98 -118 -114 -118 -134 0 -33 64 -83 182 -144 109 -56 143 -65 179 -46 27 15
24 33 -16 96 -52 81 -48 100 35 186 39 40 73 83 76 96 16 57 -31 143 -92 168
-42 18 -42 18 -84 -4z"/>
<path d="M2515 2746 c-34 -15 -64 -50 -98 -113 -23 -44 -69 -97 -129 -149 -48
-42 -71 -79 -64 -102 5 -15 87 -82 101 -82 2 0 41 -23 87 -51 46 -28 99 -54
119 -56 71 -10 102 36 60 89 -11 13 -29 42 -40 64 -29 55 -20 76 69 167 74 76
82 95 56 146 -16 29 -80 91 -96 91 -4 0 -14 2 -22 5 -7 2 -27 -2 -43 -9z"/>
<path d="M1527 2132 c-21 -23 -22 -76 -1 -110 9 -15 50 -54 91 -87 122 -98
134 -125 88 -200 -15 -24 -24 -55 -25 -80 0 -35 6 -45 58 -95 178 -174 415
-244 665 -196 135 26 243 83 364 192 42 38 120 97 172 131 188 121 189 122
177 166 -3 12 -24 42 -46 67 -50 57 -70 97 -70 147 0 57 -23 85 -68 81 -29 -2
-40 -9 -50 -31 -24 -49 -8 -103 53 -186 30 -41 55 -81 55 -90 0 -32 -32 -61
-132 -118 -55 -32 -126 -72 -157 -90 -31 -18 -106 -57 -167 -88 -93 -46 -123
-56 -190 -63 -119 -13 -235 1 -323 38 -174 74 -209 125 -160 234 19 43 19 49
5 71 -8 13 -45 45 -82 72 -120 86 -154 132 -154 206 0 43 -72 63 -103 29z"/>
<path d="M850 2529 c0 -5 5 -7 10 -4 6 3 10 8 10 11 0 2 -4 4 -10 4 -5 0 -10
-5 -10 -11z"/>
<path d="M1360 685 c-11 -13 -10 -14 4 -9 9 3 16 10 16 15 0 13 -6 11 -20 -6z"/>
<path d="M1392 670 c-11 -18 -9 -20 14 -20 24 0 25 2 13 18 -7 9 -14 18 -14
19 0 1 -6 -7 -13 -17z"/>
<path d="M1373 612 c10 -9 13 -27 10 -51 -4 -32 2 -44 49 -105 29 -39 68 -85
86 -104 17 -19 32 -38 32 -43 0 -16 42 -47 59 -42 13 4 14 3 2 -5 -13 -9 -13
-13 0 -29 18 -23 51 -48 63 -48 5 0 13 -13 17 -29 5 -16 21 -41 36 -56 15 -14
34 -36 42 -48 8 -11 18 -19 23 -16 4 3 8 -1 8 -9 0 -20 25 -28 44 -14 13 10 8
16 -34 36 -51 26 -67 43 -28 33 14 -3 19 -2 14 6 -4 7 -14 12 -23 12 -9 0 -13
6 -10 13 4 10 -2 13 -21 10 -16 -3 -22 -1 -16 4 7 5 8 16 3 28 l-8 20 0 -20
c-1 -14 -8 -7 -23 23 -12 23 -28 42 -35 42 -7 0 -13 5 -13 10 0 6 -11 22 -25
36 -14 14 -23 29 -20 34 3 5 -5 12 -18 15 -16 4 -33 23 -47 51 -15 29 -30 44
-42 44 -11 0 -16 5 -13 10 3 6 1 10 -5 10 -6 0 -9 4 -5 9 3 5 1 12 -4 16 -6 3
-8 12 -5 20 4 8 -1 18 -10 21 -9 3 -13 10 -10 15 3 5 -2 9 -10 9 -10 0 -15 8
-13 23 1 17 -3 21 -18 19 -18 -2 -18 -1 -5 10 9 7 16 23 17 35 1 18 -4 21 -28
21 -26 -1 -28 -3 -16 -16z"/>
<path d="M2960 542 c0 -7 -7 -12 -15 -12 -8 0 -14 -3 -13 -7 3 -11 -39 -77
-173 -279 -8 -13 -30 -39 -47 -59 -18 -19 -32 -39 -32 -45 0 -5 -7 -10 -16
-10 -8 0 -13 -4 -9 -9 3 -5 -7 -19 -21 -30 -15 -12 -24 -21 -20 -21 4 0 1 -7
-8 -15 -8 -8 -19 -15 -25 -15 -13 0 -10 -22 4 -32 22 -16 51 -7 76 25 14 17
62 82 107 142 45 61 86 115 90 120 54 67 126 234 108 252 -3 4 -6 1 -6 -5z"/>
</g>
</svg>
